<?xml version="1.0" encoding="UTF-8" standalone="no"?><!DOCTYPE svg PUBLIC "-//W3C//DTD SVG 1.1//EN" "http://www.w3.org/Graphics/SVG/1.1/DTD/svg11.dtd"><svg width="100%" height="100%" viewBox="0 0 2084 378" version="1.1" xmlns="http://www.w3.org/2000/svg" xmlns:xlink="http://www.w3.org/1999/xlink" xml:space="preserve" xmlns:serif="http://www.serif.com/" style="fill-rule:evenodd;clip-rule:evenodd;stroke-linejoin:round;stroke-miterlimit:2;"><path d="M466.396,377.128c-33.228,0 -63.305,-7.243 -90.231,-21.729c-26.926,-14.486 -48.246,-35.765 -63.959,-63.837c-15.714,-28.072 -23.57,-62.323 -23.57,-102.753c0,-40.757 7.857,-75.213 23.57,-103.366c15.714,-28.154 37.033,-49.433 63.959,-63.837c26.926,-14.404 57.003,-21.606 90.231,-21.606c33.228,0 63.264,7.202 90.108,21.606c26.844,14.404 48.164,35.683 63.959,63.837c15.795,28.154 23.693,62.609 23.693,103.366c0,40.594 -7.898,74.926 -23.693,102.998c-15.795,28.072 -37.115,49.31 -63.959,63.714c-26.844,14.404 -56.88,21.606 -90.108,21.606Zm0,-87.898c16.041,0 29.668,-3.969 40.88,-11.908c11.212,-7.939 19.683,-19.397 25.412,-34.374c5.729,-14.977 8.593,-33.023 8.593,-54.138c0,-21.279 -2.864,-39.448 -8.593,-54.507c-5.729,-15.059 -14.2,-26.558 -25.412,-34.496c-11.212,-7.939 -24.839,-11.908 -40.88,-11.908c-16.041,0 -29.627,3.969 -40.757,11.908c-11.131,7.939 -19.601,19.437 -25.412,34.496c-5.811,15.059 -8.716,33.228 -8.716,54.507c0,21.115 2.905,39.161 8.716,54.138c5.811,14.977 14.281,26.435 25.412,34.374c11.131,7.939 24.716,11.908 40.757,11.908Z" style="fill:#fff;fill-rule:nonzero;"/><path d="M780.736,257.662l0,119.466l-104.533,0l0,-377.128l160.722,0c29.529,0 55.135,5.315 76.818,15.946c21.683,10.63 38.472,25.69 50.368,45.179c11.896,19.489 17.844,42.733 17.844,69.731c0,26.323 -6.159,48.976 -18.477,67.959c-10.07,15.519 -23.524,28.078 -40.361,37.676l70.733,140.637l-110.101,0l-58.676,-119.466l-44.338,0Zm0,-80.994l44.547,0c10.968,0 20.417,-1.856 28.348,-5.568c7.931,-3.712 14.005,-8.985 18.224,-15.819c4.218,-6.834 6.328,-14.975 6.328,-24.425c0,-9.618 -2.109,-17.844 -6.328,-24.678c-4.218,-6.834 -10.293,-12.107 -18.224,-15.819c-7.931,-3.712 -17.38,-5.568 -28.348,-5.568l-44.547,0l0,91.877Z" style="fill:#fff;"/><path d="M1125.886,108.166c0.384,14.869 0.802,29.603 1.254,44.204l1.392,45.306c0.422,13.836 0.633,25.057 0.633,33.663l0,145.789l-103.267,0l0,-377.128l158.191,0l33.916,117.947c2.869,10.124 6.243,22.737 10.124,37.839c3.881,15.102 7.804,31.005 11.769,47.71c2.292,9.657 4.486,19.074 6.581,28.251c2.095,-9.177 4.288,-18.595 6.581,-28.251c3.965,-16.705 7.804,-32.608 11.516,-47.71c3.712,-15.102 7.003,-27.715 9.871,-37.839l33.41,-117.947l158.697,0l0,377.128l-103.267,0l0,-145.789c0,-8.606 0.211,-19.827 0.633,-33.663l1.392,-45.306c0.506,-16.368 0.97,-32.904 1.392,-49.609c0.006,-0.237 0.012,-0.474 0.018,-0.711c-0.09,0.363 -0.18,0.726 -0.271,1.09c-4.134,16.621 -8.268,33.03 -12.402,49.229c-4.134,16.199 -8.057,31.132 -11.769,44.8c-3.712,13.668 -6.918,25.057 -9.618,34.169l-43.787,145.789l-85.044,0l-44.547,-145.789c-2.7,-9.112 -5.99,-20.502 -9.871,-34.169c-3.881,-13.668 -7.931,-28.601 -12.149,-44.8c-3.793,-14.564 -7.585,-29.299 -11.378,-44.204Z" style="fill:#fff;"/><rect x="1498.602" y="0" width="104.533" height="377.128" style="fill:#fff;"/><rect x="1635.182" y="0" width="104.533" height="377.128" style="fill:#fff;"/><path d="M1929.143,377.128c-33.392,0 -61.791,-4.87 -85.197,-14.609c-23.407,-9.739 -41.289,-24.225 -53.647,-43.458c-12.358,-19.233 -18.537,-42.844 -18.537,-70.834l96.001,0c0.491,10.148 3.274,18.783 8.348,25.903c5.074,7.12 12.154,12.604 21.238,16.45c9.084,3.847 19.847,5.77 32.287,5.77c10.803,0 20.133,-1.35 27.99,-4.051c7.857,-2.701 13.913,-6.466 18.169,-11.294c4.256,-4.829 6.384,-10.353 6.384,-16.573c0,-5.893 -2.046,-11.008 -6.138,-15.345c-4.092,-4.338 -10.435,-8.143 -19.028,-11.417c-8.593,-3.274 -19.765,-6.302 -33.514,-9.084l-36.583,-7.12c-34.537,-6.711 -61.136,-18.987 -79.796,-36.829c-18.66,-17.842 -27.99,-40.512 -27.99,-68.011c0,-23.243 6.302,-43.581 18.905,-61.013c12.604,-17.432 30.077,-31.059 52.42,-40.88c22.343,-9.821 48.246,-14.732 77.709,-14.732c30.282,0 56.348,4.87 78.2,14.609c21.852,9.739 38.793,23.652 50.824,41.739c12.031,18.087 18.374,39.734 19.028,64.942l-94.036,0c-1.146,-12.604 -6.302,-22.507 -15.468,-29.709c-9.166,-7.202 -21.443,-10.803 -36.829,-10.803c-9.657,0 -18.087,1.309 -25.289,3.928c-7.202,2.619 -12.767,6.22 -16.696,10.803c-3.928,4.583 -5.893,9.903 -5.893,15.959c0,5.729 1.841,10.68 5.524,14.854c3.683,4.174 9.453,7.816 17.31,10.926c7.857,3.11 18.005,5.811 30.445,8.102l29.463,5.647c20.788,3.928 38.67,9.044 53.647,15.345c14.977,6.302 27.253,13.872 36.829,22.711c9.576,8.839 16.655,19.028 21.238,30.568c4.583,11.54 6.875,24.512 6.875,38.916c0,25.207 -6.056,46.65 -18.169,64.328c-12.113,17.678 -29.668,31.141 -52.665,40.389c-22.998,9.248 -50.783,13.872 -83.356,13.872Z" style="fill:#fff;"/><g><path d="M186.68,229.993l114.901,147.134l-102.642,0l-55.619,-71.221l43.359,-75.913Z" style="fill:#fff;"/><path d="M102.642,197.423l-102.642,179.705l-0,-377.128l102.642,0l0,197.423Z" style="fill:#fff;"/><path d="M0,377.128l215.403,-377.128l102.642,0l-215.403,377.128l-102.642,0Z" style="fill:#fe3501;"/></g></svg>